<mxfile host="app.diagrams.net" modified="2024-05-11T13:49:11.612Z" agent="Mozilla/5.0 (Windows NT 10.0; Win64; x64) AppleWebKit/537.36 (KHTML, like Gecko) Chrome/124.0.0.0 Safari/537.36" version="24.3.1" etag="I3-YgPnDtjvRWiPcNU_M" type="github">
  <diagram name="第 1 页" id="sb0U7Z1G624u3dEEh6S6">
    <mxGraphModel>
      <root>
        <mxCell id="0" />
        <mxCell id="1" parent="0" />
      </root>
    </mxGraphModel>
  </diagram>
</mxfile>
